<svg width="390" height="844" viewBox="0 0 390 844" fill="none" xmlns="http://www.w3.org/2000/svg">
  <defs>
    <linearGradient id="m-purple-grad" x1="0" y1="0" x2="1" y2="1">
      <stop offset="0%" stop-color="#a855f7"/>
      <stop offset="100%" stop-color="#6366f1"/>
    </linearGradient>
  </defs>

  <rect width="390" height="844" rx="40" fill="#fafafa" stroke="#d0d0d0" stroke-width="2"/>

  <rect x="0" y="0" width="390" height="54" rx="40" fill="#fafafa"/>
  <text x="30" y="36" fill="#1a1a2e" font-family="system-ui" font-size="14" font-weight="600">9:41</text>
  <text x="330" y="36" fill="#1a1a2e" font-family="system-ui" font-size="12">📶 🔋</text>
  <rect x="130" y="6" width="130" height="28" rx="14" fill="#1a1a2e"/>

  <rect x="16" y="64" width="358" height="36" fill="#f5f5f5" rx="10"/>
  <rect x="18" y="66" width="80" height="32" rx="8" fill="white" stroke="#e5e2f0" stroke-width="0.5"/>
  <text x="58" y="86" text-anchor="middle" fill="#7c3aed" font-family="system-ui" font-size="11" font-weight="600">지문 원문</text>
  <text x="155" y="86" text-anchor="middle" fill="#6b6b80" font-family="system-ui" font-size="11">타겟 지문</text>
  <text x="248" y="86" text-anchor="middle" fill="#6b6b80" font-family="system-ui" font-size="11">변형 문제</text>
  <rect x="285" y="72" width="20" height="20" rx="6" fill="#7c3aed" fill-opacity="0.15"/>
  <text x="295" y="86" text-anchor="middle" fill="#7c3aed" font-family="system-ui" font-size="10" font-weight="700">3</text>

  <rect x="16" y="112" width="80" height="22" rx="11" fill="#7c3aed" fill-opacity="0.08" stroke="#7c3aed" stroke-opacity="0.2" stroke-width="0.5"/>
  <text x="56" y="127" text-anchor="middle" fill="#7c3aed" font-family="system-ui" font-size="9" font-weight="600">EBS 수능특강</text>
  <rect x="102" y="112" width="36" height="22" rx="11" fill="#f0f0f5"/>
  <text x="120" y="127" text-anchor="middle" fill="#6b6b80" font-family="system-ui" font-size="9">영어</text>
  <rect x="144" y="112" width="36" height="22" rx="11" fill="#f0f0f5"/>
  <text x="162" y="127" text-anchor="middle" fill="#6b6b80" font-family="system-ui" font-size="9">2024</text>

  <text x="16" y="162" fill="#1a1a2e" font-family="system-ui" font-size="15" font-weight="700">Cultural Intelligence in a</text>
  <text x="16" y="182" fill="#1a1a2e" font-family="system-ui" font-size="15" font-weight="700">Globalized World</text>

  <rect x="16" y="198" width="358" height="7" rx="3.5" fill="#1a1a2e" opacity="0.08"/>
  <rect x="16" y="212" width="320" height="7" rx="3.5" fill="#1a1a2e" opacity="0.06"/>
  <rect x="16" y="226" width="340" height="7" rx="3.5" fill="#1a1a2e" opacity="0.08"/>
  <rect x="16" y="240" width="280" height="7" rx="3.5" fill="#1a1a2e" opacity="0.06"/>

  <rect x="16" y="270" width="358" height="88" rx="12" fill="white" stroke="#e5e2f0" stroke-width="1"/>
  <rect x="28" y="284" width="36" height="36" rx="10" fill="url(#m-purple-grad)"/>
  <text x="46" y="308" text-anchor="middle" fill="white" font-family="system-ui" font-size="16" font-weight="800">1</text>
  <rect x="74" y="284" width="36" height="20" rx="10" fill="#0ea5e9" fill-opacity="0.1" stroke="#0ea5e9" stroke-opacity="0.25" stroke-width="0.5"/>
  <text x="92" y="298" text-anchor="middle" fill="#0ea5e9" font-family="system-ui" font-size="9" font-weight="600">어법</text>
  <rect x="116" y="284" width="36" height="20" rx="10" fill="#f59e0b" fill-opacity="0.1" stroke="#f59e0b" stroke-opacity="0.25" stroke-width="0.5"/>
  <text x="134" y="298" text-anchor="middle" fill="#f59e0b" font-family="system-ui" font-size="9" font-weight="600">Lv.3</text>
  <rect x="74" y="314" width="280" height="7" rx="3.5" fill="#1a1a2e" opacity="0.06"/>
  <rect x="74" y="329" width="220" height="7" rx="3.5" fill="#1a1a2e" opacity="0.04"/>

  <rect x="16" y="370" width="358" height="88" rx="12" fill="white" stroke="#e5e2f0" stroke-width="1"/>
  <rect x="28" y="384" width="36" height="36" rx="10" fill="url(#m-purple-grad)"/>
  <text x="46" y="408" text-anchor="middle" fill="white" font-family="system-ui" font-size="16" font-weight="800">2</text>
  <rect x="74" y="384" width="56" height="20" rx="10" fill="#14b8a6" fill-opacity="0.1" stroke="#14b8a6" stroke-opacity="0.25" stroke-width="0.5"/>
  <text x="102" y="398" text-anchor="middle" fill="#14b8a6" font-family="system-ui" font-size="9" font-weight="600">빈칸추론</text>
  <rect x="136" y="384" width="36" height="20" rx="10" fill="#f43f5e" fill-opacity="0.1" stroke="#f43f5e" stroke-opacity="0.25" stroke-width="0.5"/>
  <text x="154" y="398" text-anchor="middle" fill="#f43f5e" font-family="system-ui" font-size="9" font-weight="600">Lv.4</text>
  <rect x="74" y="414" width="300" height="7" rx="3.5" fill="#1a1a2e" opacity="0.06"/>
  <rect x="74" y="429" width="240" height="7" rx="3.5" fill="#1a1a2e" opacity="0.04"/>

  <rect x="16" y="470" width="358" height="88" rx="12" fill="white" stroke="#e5e2f0" stroke-width="1"/>
  <rect x="28" y="484" width="36" height="36" rx="10" fill="url(#m-purple-grad)"/>
  <text x="46" y="508" text-anchor="middle" fill="white" font-family="system-ui" font-size="16" font-weight="800">3</text>
  <rect x="74" y="484" width="36" height="20" rx="10" fill="#a855f7" fill-opacity="0.1" stroke="#a855f7" stroke-opacity="0.25" stroke-width="0.5"/>
  <text x="92" y="498" text-anchor="middle" fill="#a855f7" font-family="system-ui" font-size="9" font-weight="600">어휘</text>
  <rect x="116" y="484" width="36" height="20" rx="10" fill="#22c55e" fill-opacity="0.1" stroke="#22c55e" stroke-opacity="0.25" stroke-width="0.5"/>
  <text x="134" y="498" text-anchor="middle" fill="#22c55e" font-family="system-ui" font-size="9" font-weight="600">Lv.2</text>
  <rect x="74" y="514" width="280" height="7" rx="3.5" fill="#1a1a2e" opacity="0.06"/>
  <rect x="74" y="529" width="230" height="7" rx="3.5" fill="#1a1a2e" opacity="0.04"/>

  <rect x="16" y="580" width="358" height="44" rx="12" fill="#f5f5f5" stroke="#e5e2f0" stroke-width="1"/>
  <text x="32" y="606" fill="#6b6b80" font-family="system-ui" font-size="11">총 3문항 · 평균 Lv.3</text>
  <rect x="246" y="588" width="116" height="28" rx="8" fill="url(#m-purple-grad)"/>
  <text x="304" y="606" text-anchor="middle" fill="white" font-family="system-ui" font-size="10" font-weight="700">📥 DOCX 내보내기</text>

  <rect x="0" y="756" width="390" height="88" rx="0" fill="white" stroke="#e5e2f0" stroke-width="1"/>

  <g transform="translate(15, 764)">
    <text x="24" y="18" text-anchor="middle" fill="#a0a0b0" font-family="system-ui" font-size="20">📤</text>
    <text x="24" y="36" text-anchor="middle" fill="#a0a0b0" font-family="system-ui" font-size="9">업로드</text>
  </g>
  <g transform="translate(93, 764)">
    <rect x="2" y="-6" width="44" height="2" rx="1" fill="url(#m-purple-grad)"/>
    <text x="24" y="18" text-anchor="middle" fill="#7c3aed" font-family="system-ui" font-size="20">📝</text>
    <text x="24" y="36" text-anchor="middle" fill="#7c3aed" font-family="system-ui" font-size="9" font-weight="700">결과</text>
  </g>
  <g transform="translate(171, 764)">
    <text x="24" y="18" text-anchor="middle" fill="#a0a0b0" font-family="system-ui" font-size="20">💬</text>
    <text x="24" y="36" text-anchor="middle" fill="#a0a0b0" font-family="system-ui" font-size="9">채팅</text>
  </g>
  <g transform="translate(249, 764)">
    <text x="24" y="18" text-anchor="middle" fill="#a0a0b0" font-family="system-ui" font-size="20">📂</text>
    <text x="24" y="36" text-anchor="middle" fill="#a0a0b0" font-family="system-ui" font-size="9">이력</text>
  </g>
  <g transform="translate(327, 764)">
    <text x="24" y="18" text-anchor="middle" fill="#a0a0b0" font-family="system-ui" font-size="20">⚙️</text>
    <text x="24" y="36" text-anchor="middle" fill="#a0a0b0" font-family="system-ui" font-size="9">설정</text>
  </g>

  <rect x="135" y="830" width="120" height="5" rx="2.5" fill="#1a1a2e" opacity="0.15"/>
</svg>
